HIERARCHY
ROOT Hips
{
  OFFSET 352.181 89.6817 215.948
  CHANNELS 6 Xposition Yposition Zposition Zrotation Xrotation Yrotation
  JOINT RightUpLeg
  {
    OFFSET -9.28908 -1.54242 -0.003762
    CHANNELS 3 Zrotation Xrotation Yrotation
    JOINT RightLeg
    {
      OFFSET 0.175992 -41.9066 0.16442
      CHANNELS 3 Zrotation Xrotation Yrotation
      JOINT RightFoot
      {
        OFFSET -0.850518 -41.676 1.19357
        CHANNELS 3 Zrotation Xrotation Yrotation
        End Site
        {
          OFFSET 0 -7.69 17.5
        }
      }
    }
  }
  JOINT LeftUpLeg
  {
    OFFSET 9.35911 -1.62184 0.0934226
    CHANNELS 3 Zrotation Xrotation Yrotation
    JOINT LeftLeg
    {
      OFFSET 0.11037 -41.8771 -4.76722e-05
      CHANNELS 3 Zrotation Xrotation Yrotation
      JOINT LeftFoot
      {
        OFFSET 0.784832 -42.2153 -2.4698
        CHANNELS 3 Zrotation Xrotation Yrotation
        End Site
        {
          OFFSET 0 -7.69 17.5
        }
      }
    }
  }
  JOINT Spine
  {
    OFFSET -0.0264112 14.3118 0.141242
    CHANNELS 3 Zrotation Xrotation Yrotation
    JOINT Spine1
    {
      OFFSET -0.0608006 9.71827 0.0702426
      CHANNELS 3 Zrotation Xrotation Yrotation
      JOINT Spine2
      {
        OFFSET 0.040197 10.1251 -0.0199022
        CHANNELS 3 Zrotation Xrotation Yrotation
        JOINT Spine3
        {
          OFFSET -0.018884 9.71791 0.0127475
          CHANNELS 3 Zrotation Xrotation Yrotation
          JOINT Neck
          {
            OFFSET -0.169577 10.3664 -0.0885607
            CHANNELS 3 Zrotation Xrotation Yrotation
            JOINT Head
            {
              OFFSET -0.26372 9.48406 0.127016
              CHANNELS 3 Zrotation Xrotation Yrotation
              End Site
              {
                OFFSET 0 15.95 0
              }
            }
          }
          JOINT RightShoulder
          {
            OFFSET -3.21308 6.8767 -0.0450237
            CHANNELS 3 Zrotation Xrotation Yrotation
            JOINT RightArm
            {
              OFFSET -12.7762 -0.0188046 -0.0629949
              CHANNELS 3 Zrotation Xrotation Yrotation
              JOINT RightForeArm
              {
                OFFSET -26.5383 -0.000218244 -0.103623
                CHANNELS 3 Zrotation Xrotation Yrotation
                JOINT RightHand
                {
                  OFFSET -25.8669 -0.047899 -0.0603739
                  CHANNELS 3 Zrotation Xrotation Yrotation
                  JOINT RightHandThumb1
                  {
                    OFFSET -2.48905 0.190105 3.12053
                    CHANNELS 3 Zrotation Xrotation Yrotation
                    JOINT RightHandThumb2
                    {
                      OFFSET -3.68274 0 0
                      CHANNELS 3 Zrotation Xrotation Yrotation
                      JOINT RightHandThumb3
                      {
                        OFFSET -2.55832 0 0
                        CHANNELS 3 Zrotation Xrotation Yrotation
                        End Site
                        {
                          OFFSET -2.194 0 0
                        }
                      }
                    }
                  }
                  JOINT RightInHandIndex
                  {
                    OFFSET -3.22368 0.508421 1.97842
                    CHANNELS 3 Zrotation Xrotation Yrotation
                    JOINT RightHandIndex1
                    {
                      OFFSET -5.21684 -0.091368 0.999158
                      CHANNELS 3 Zrotation Xrotation Yrotation
                      JOINT RightHandIndex2
                      {
                        OFFSET -3.61937 0 0
                        CHANNELS 3 Zrotation Xrotation Yrotation
                        JOINT RightHandIndex3
                        {
                          OFFSET -2.0521 0 0
                          CHANNELS 3 Zrotation Xrotation Yrotation
                          End Site
                          {
                            OFFSET -1.805 0 0
                          }
                        }
                      }
                    }
                  }
                  JOINT RightInHandMiddle
                  {
                    OFFSET -3.38211 0.517263 0.756737
                    CHANNELS 3 Zrotation Xrotation Yrotation
                    JOINT RightHandMiddle1
                    {
                      OFFSET -5.17411 -0.084 0.313895
                      CHANNELS 3 Zrotation Xrotation Yrotation
                      JOINT RightHandMiddle2
                      {
                        OFFSET -3.94947 0 0
                        CHANNELS 3 Zrotation Xrotation Yrotation
                        JOINT RightHandMiddle3
                        {
                          OFFSET -2.47579 0 0
                          CHANNELS 3 Zrotation Xrotation Yrotation
                          End Site
                          {
                            OFFSET -1.975 0 0
                          }
                        }
                      }
                    }
                  }
                  JOINT RightInHandRing
                  {
                    OFFSET -3.36516 0.537895 -0.128947
                    CHANNELS 3 Zrotation Xrotation Yrotation
                    JOINT RightHandRing1
                    {
                      OFFSET -4.63474 -0.022105 -0.478947
                      CHANNELS 3 Zrotation Xrotation Yrotation
                      JOINT RightHandRing2
                      {
                        OFFSET -3.44238 0 0
                        CHANNELS 3 Zrotation Xrotation Yrotation
                        JOINT RightHandRing3
                        {
                          OFFSET -2.3881 0 0
                          CHANNELS 3 Zrotation Xrotation Yrotation
                          End Site
                          {
                            OFFSET -1.857 0 0
                          }
                        }
                      }
                    }
                  }
                  JOINT RightInHandPinky
                  {
                    OFFSET -3.16105 0.469368 -1.20179
                    CHANNELS 3 Zrotation Xrotation Yrotation
                    JOINT RightHandPinky1
                    {
                      OFFSET -4.14105 -0.022105 -1.09053
                      CHANNELS 3 Zrotation Xrotation Yrotation
                      JOINT RightHandPinky2
                      {
                        OFFSET -2.75653 0 0
                        CHANNELS 3 Zrotation Xrotation Yrotation
                        JOINT RightHandPinky3
                        {
                          OFFSET -1.74189 0 0
                          CHANNELS 3 Zrotation Xrotation Yrotation
                          End Site
                          {
                            OFFSET -1.645 0 0
                          }
                        }
                      }
                    }
                  }
                }
              }
            }
          }
          JOINT LeftShoulder
          {
            OFFSET 3.21013 6.92813 0.031381
            CHANNELS 3 Zrotation Xrotation Yrotation
            JOINT LeftArm
            {
              OFFSET 12.8361 0.00272676 -0.00293476
              CHANNELS 3 Zrotation Xrotation Yrotation
              JOINT LeftForeArm
              {
                OFFSET 26.5005 -0.02636 0.00399578
                CHANNELS 3 Zrotation Xrotation Yrotation
                JOINT LeftHand
                {
                  OFFSET 25.9821 -0.0367196 0.00246136
                  CHANNELS 3 Zrotation Xrotation Yrotation
                  JOINT LeftHandThumb1
                  {
                    OFFSET 2.48905 0.190105 3.12053
                    CHANNELS 3 Zrotation Xrotation Yrotation
                    JOINT LeftHandThumb2
                    {
                      OFFSET 3.68274 0 0
                      CHANNELS 3 Zrotation Xrotation Yrotation
                      JOINT LeftHandThumb3
                      {
                        OFFSET 2.55832 0 0
                        CHANNELS 3 Zrotation Xrotation Yrotation
                        End Site
                        {
                          OFFSET 2.194 0 0
                        }
                      }
                    }
                  }
                  JOINT LeftInHandIndex
                  {
                    OFFSET 3.22368 0.508421 1.97842
                    CHANNELS 3 Zrotation Xrotation Yrotation
                    JOINT LeftHandIndex1
                    {
                      OFFSET 5.21684 -0.091368 0.999158
                      CHANNELS 3 Zrotation Xrotation Yrotation
                      JOINT LeftHandIndex2
                      {
                        OFFSET 3.61937 0 0
                        CHANNELS 3 Zrotation Xrotation Yrotation
                        JOINT LeftHandIndex3
                        {
                          OFFSET 2.0521 0 0
                          CHANNELS 3 Zrotation Xrotation Yrotation
                          End Site
                          {
                            OFFSET 1.805 0 0
                          }
                        }
                      }
                    }
                  }
                  JOINT LeftInHandMiddle
                  {
                    OFFSET 3.38211 0.517263 0.756737
                    CHANNELS 3 Zrotation Xrotation Yrotation
                    JOINT LeftHandMiddle1
                    {
                      OFFSET 5.17411 -0.084 0.313895
                      CHANNELS 3 Zrotation Xrotation Yrotation
                      JOINT LeftHandMiddle2
                      {
                        OFFSET 3.94947 0 0
                        CHANNELS 3 Zrotation Xrotation Yrotation
                        JOINT LeftHandMiddle3
                        {
                          OFFSET 2.47579 0 0
                          CHANNELS 3 Zrotation Xrotation Yrotation
                          End Site
                          {
                            OFFSET 1.975 0 0
                          }
                        }
                      }
                    }
                  }
                  JOINT LeftInHandRing
                  {
                    OFFSET 3.36516 0.537895 -0.128947
                    CHANNELS 3 Zrotation Xrotation Yrotation
                    JOINT LeftHandRing1
                    {
                      OFFSET 4.63474 -0.022105 -0.478947
                      CHANNELS 3 Zrotation Xrotation Yrotation
                      JOINT LeftHandRing2
                      {
                        OFFSET 3.44238 0 0
                        CHANNELS 3 Zrotation Xrotation Yrotation
                        JOINT LeftHandRing3
                        {
                          OFFSET 2.3881 0 0
                          CHANNELS 3 Zrotation Xrotation Yrotation
                          End Site
                          {
                            OFFSET 1.857 0 0
                          }
                        }
                      }
                    }
                  }
                  JOINT LeftInHandPinky
                  {
                    OFFSET 3.16105 0.469368 -1.20179
                    CHANNELS 3 Zrotation Xrotation Yrotation
                    JOINT LeftHandPinky1
                    {
                      OFFSET 4.14105 -0.022105 -1.09053
                      CHANNELS 3 Zrotation Xrotation Yrotation
                      JOINT LeftHandPinky2
                      {
                        OFFSET 2.75653 0 0
                        CHANNELS 3 Zrotation Xrotation Yrotation
                        JOINT LeftHandPinky3
                        {
                          OFFSET 1.74189 0 0
                          CHANNELS 3 Zrotation Xrotation Yrotation
                          End Site
                          {
                            OFFSET 1.645 0 0
                          }
                        }
                      }
                    }
                  }
                }
              }
            }
          }
        }
      }
    }
  }
}
MOTION
Frames:	4
Frame Time:	0.00833333
355.322 87.2255 209.109 25.2065 5.76775 -113.931 27.9122 -49.3195 25.7483 -8.26029 15.9011 -5.151 10.4322 14.0755 43.3395 36.4489 -26.0663 22.0179 -21.6932 39.2621 30.2888 -6.79443 -24.3986 -6.44776 -5.352 -2.35882 -16.8857 -1.27902 -0.88328 -4.19097 -2.12817 -1.53964 -6.75768 -0.561006 -0.32985 2.74062 -0.794175 -4.68566 42.0442 -8.91909 6.99509 26.284 7.64194 4.14416 -1.34925 33.572 -64.8858 -4.59346 32.9908 7.13516 125.604 9.37735 -15.2121 7.81949 28.184 10.7294 19.1592 1.87722e-14 0 -10 -9.17877e-15 -3.97569e-15 -10 1.59028e-15 -1.59028e-15 2.38542e-15 19.9818 0.871897 2.3964 24 2.18663e-15 7.95139e-15 20 -3.18055e-15 7.95139e-15 1.59028e-15 -1.59028e-15 2.38542e-15 20 2.38542e-15 4.77083e-15 24 -3.18055e-15 -6.36111e-15 20 1.68967e-15 3.18055e-15 1.59028e-15 -1.59028e-15 2.38542e-15 19.9748 -1.02565 -2.81938 24 -7.95139e-16 -0 20 -1.11319e-14 6.36111e-15 1.59028e-15 -1.59028e-15 2.38542e-15 19.7815 -3.00948 -8.30515 24 -3.18055e-15 -3.18055e-15 20 -1.03368e-14 1.03368e-14 6.56646 -17.3217 -51.9446 -8.32082 25.7887 -114.906 37.4501 -8.77946 -34.7879 -34.329 -8.57671 -12.856 -28.184 10.7294 -19.1592 7.7931e-16 1.59028e-15 10 3.66714e-15 -4.77083e-15 10 -7.15625e-15 1.59028e-15 -0 -19.9818 0.871897 -2.3964 -24 5.1684e-15 -3.18055e-15 -20 -5.56597e-15 -1.43125e-14 -7.15625e-15 1.59028e-15 -0 -20 -8.39865e-15 -7.95139e-15 -24 -2.38542e-15 1.59028e-15 -20 0 -4.77083e-15 -7.15625e-15 1.59028e-15 -0 -19.9748 -1.02565 2.81938 -24 5.56597e-15 1.59028e-15 -20 1.59028e-15 -6.36111e-15 -7.15625e-15 1.59028e-15 -0 -19.7815 -3.00948 8.30515 -24 -3.18055e-15 -3.18055e-15 -20 -4.77083e-15 -9.54166e-15 
355.332 87.2131 209.12 25.1624 5.82676 -114.187 28.163 -49.2207 25.93 -8.2437 15.9569 -5.01814 10.426 14.0439 43.3151 36.5556 -25.9083 22.1825 -21.6911 39.291 30.3357 -6.77743 -24.3963 -6.44738 -5.31074 -2.35036 -16.7649 -1.26926 -0.877096 -4.16103 -2.1123 -1.5286 -6.7124 -0.560884 -0.327386 2.74056 -0.793012 -4.65871 42.0411 -8.90822 7.02641 26.2968 7.73113 4.11705 -1.40206 34.1563 -64.7345 -4.26669 32.8806 6.92776 125.647 9.62931 -15.2198 8.04406 28.184 10.7294 19.1592 3.23469e-14 7.15625e-15 -10 1.18328e-15 5.56597e-15 -10 -3.57812e-15 -6.36111e-15 3.18055e-15 19.9818 0.871897 2.3964 24 4.96962e-15 7.95139e-15 20 -3.97569e-16 7.95139e-15 -3.57812e-15 -6.36111e-15 3.18055e-15 20 2.38542e-15 7.95139e-15 24 -1.19271e-15 -0 20 -4.96962e-16 4.77083e-15 -3.57812e-15 -6.36111e-15 3.18055e-15 19.9748 -1.02565 -2.81938 24 -3.97569e-15 1.59028e-15 20 -1.03368e-14 7.95139e-15 -3.57812e-15 -6.36111e-15 3.18055e-15 19.7815 -3.00948 -8.30515 24 -3.18055e-15 -3.97569e-15 20 -8.74653e-15 1.11319e-14 6.52508 -17.2771 -51.9042 -8.2805 25.7775 -114.865 37.2032 -8.66236 -34.7178 -34.7883 -8.62791 -12.7207 -28.184 10.7294 -19.1592 -1.31203e-15 0 10 2.85974e-15 -4.77083e-15 10 -7.15625e-15 -3.97569e-16 -1.59028e-15 -19.9818 0.871897 -2.3964 -24 5.56597e-15 -3.18055e-15 -20 -2.38542e-15 -1.27222e-14 -7.15625e-15 -3.97569e-16 -1.59028e-15 -20 -8.84592e-15 -6.36111e-15 -24 -7.95139e-16 -1.59028e-15 -20 1.59028e-15 -4.77083e-15 -7.15625e-15 -3.97569e-16 -1.59028e-15 -19.9748 -1.02565 2.81938 -24 5.56597e-15 -0 -20 4.77083e-15 -7.95139e-15 -7.15625e-15 -3.97569e-16 -1.59028e-15 -19.7815 -3.00948 8.30515 -24 1.59028e-15 -9.54166e-15 -20 0 -9.54166e-15 
355.347 87.2042 209.122 25.1472 5.90026 -114.22 28.2416 -49.1783 25.937 -8.2781 15.9417 -5.04165 10.4627 14.0115 43.2606 36.6188 -25.8957 22.1986 -21.6777 39.3337 30.3379 -6.76057 -24.3922 -6.44485 -5.26907 -2.32813 -16.7508 -1.25945 -0.869188 -4.15862 -2.09608 -1.51511 -6.70947 -0.560748 -0.325243 2.74048 -0.794204 -4.62762 42.0056 -8.88794 7.04564 26.2917 7.82506 4.08569 -1.4531 34.6187 -64.598 -3.98991 32.6968 6.85298 125.804 9.62512 -15.3022 8.03005 28.184 10.7294 19.1592 1.14439e-14 7.95139e-16 -10 -1.21449e-14 -4.77083e-15 -10 -2.48481e-15 1.59028e-15 2.38542e-15 19.9818 0.871897 2.3964 24 3.37934e-15 4.77083e-15 20 -1.98785e-15 3.18055e-15 -2.48481e-15 1.59028e-15 2.38542e-15 20 0 7.95139e-15 24 -2.78299e-15 -4.77083e-15 20 5.96354e-16 -1.59028e-15 -2.48481e-15 1.59028e-15 2.38542e-15 19.9748 -1.02565 -2.81938 24 -3.97569e-15 1.59028e-15 20 -1.11319e-14 4.77083e-15 -2.48481e-15 1.59028e-15 2.38542e-15 19.7815 -3.00948 -8.30515 24 -3.18055e-15 -2.38542e-15 20 -7.95139e-15 1.11319e-14 6.504 -17.2597 -51.8859 -8.27147 25.85 -114.929 37.1012 -8.45541 -34.5241 -34.705 -8.60755 -12.7984 -28.184 10.7294 -19.1592 -2.75881e-15 4.77083e-15 10 1.08781e-15 -1.59028e-15 10 -6.06293e-15 0 -4.77083e-15 -19.9818 0.871897 -2.3964 -24 5.1684e-15 -4.77083e-15 -20 -4.77083e-15 -9.54166e-15 -6.06293e-15 0 -4.77083e-15 -20 -9.64106e-15 -1.59028e-15 -24 -3.97569e-15 4.77083e-15 -20 1.59028e-15 -4.77083e-15 -6.06293e-15 0 -4.77083e-15 -19.9748 -1.02565 2.81938 -24 4.77083e-15 6.36111e-15 -20 3.18055e-15 -3.18055e-15 -6.06293e-15 0 -4.77083e-15 -19.7815 -3.00948 8.30515 -24 -3.18055e-15 3.18055e-15 -20 -6.36111e-15 -6.36111e-15 
355.367 87.195 209.122 25.1466 5.9295 -114.277 28.3172 -49.1345 26.0088 -8.33534 15.9081 -5.10271 10.5254 14.0214 43.2545 36.6612 -25.8955 22.2915 -21.6288 39.3886 30.2971 -6.75135 -24.3896 -6.44617 -5.25305 -2.32354 -16.7137 -1.25566 -0.866593 -4.1495 -2.08989 -1.51051 -6.69572 -0.560574 -0.323926 2.74038 -0.795437 -4.60028 41.9676 -8.8648 7.05246 26.2821 7.91749 4.05581 -1.46491 35.1224 -64.4466 -3.69274 32.3794 6.88285 126.118 9.3938 -15.4645 7.93535 28.184 10.7294 19.1592 1.78246e-14 -7.95139e-16 -10 -5.3436e-15 -3.97569e-15 -10 9.93923e-16 -1.59028e-15 7.95139e-16 19.9818 0.871897 2.3964 24 3.18055e-15 3.18055e-15 20 -1.19271e-15 4.77083e-15 9.93923e-16 -1.59028e-15 7.95139e-16 20 3.18055e-15 4.77083e-15 24 1.19271e-15 -4.77083e-15 20 -1.98785e-16 3.18055e-15 9.93923e-16 -1.59028e-15 7.95139e-16 19.9748 -1.02565 -2.81938 24 2.38542e-15 -0 20 -9.54166e-15 4.77083e-15 9.93923e-16 -1.59028e-15 7.95139e-16 19.7815 -3.00948 -8.30515 24 0 -5.56597e-15 20 -9.54166e-15 8.74653e-15 6.52283 -17.2652 -51.8546 -8.28507 25.9395 -115.038 37.0634 -8.21627 -34.2369 -34.5419 -8.48681 -13.0618 -28.184 10.7294 -19.1592 1.45662e-16 3.18055e-15 10 3.22962e-15 0 10 -5.06901e-15 0 -1.59028e-15 -19.9818 0.871897 -2.3964 -24 6.36111e-15 -4.77083e-15 -20 -1.59028e-15 -1.35174e-14 -5.06901e-15 0 -1.59028e-15 -20 -9.14409e-15 -1.59028e-15 -24 -4.77083e-15 -0 -20 -1.59028e-15 -4.77083e-15 -5.06901e-15 0 -1.59028e-15 -19.9748 -1.02565 2.81938 -24 3.97569e-15 -1.59028e-15 -20 7.95139e-15 -4.77083e-15 -5.06901e-15 0 -1.59028e-15 -19.7815 -3.00948 8.30515 -24 0 -0 -20 -3.18055e-15 -9.54166e-15 
